<svg width="71" height="60" viewBox="0 0 71 60" fill="none" xmlns="http://www.w3.org/2000/svg">
<g filter="url(#filter0_d_55_73)">
<path d="M10.5556 1H32.7778V6.55556H10.5556V39.8889H32.7778V6.55556H38.3333V39.8889H60.5556V6.55556H38.3333V1H66.1111V45.4444H38.3333V51H32.7778V45.4444H5V1H10.5556ZM55 20.4444H43.8889V26H55V20.4444ZM43.8889 12.1111H55V17.6667H43.8889V12.1111ZM49.4444 28.7778H43.8889V34.3333H49.4444V28.7778Z" fill="#FDFCDF"/>
<path d="M33.0273 0.75V6.30566H38.083V0.75H66.3613V45.6943H38.583V51.25H32.5273V45.6943H4.75V0.75H33.0273ZM38.583 39.6387H60.3057V6.80566H38.583V39.6387ZM10.8057 39.6387H32.5273V6.80566H10.8057V39.6387ZM49.6943 28.5273V34.583H43.6387V28.5273H49.6943ZM55.25 20.1943V26.25H43.6387V20.1943H55.25ZM55.25 11.8613V17.917H43.6387V11.8613H55.25Z" stroke="black" stroke-opacity="0.6" stroke-width="0.5"/>
</g>
<defs>
<filter id="filter0_d_55_73" x="0.5" y="0.5" width="70.1111" height="59" filterUnits="userSpaceOnUse" color-interpolation-filters="sRGB">
<feFlood flood-opacity="0" result="BackgroundImageFix"/>
<feColorMatrix in="SourceAlpha" type="matrix" values="0 0 0 0 0 0 0 0 0 0 0 0 0 0 0 0 0 0 127 0" result="hardAlpha"/>
<feOffset dy="4"/>
<feGaussianBlur stdDeviation="2"/>
<feComposite in2="hardAlpha" operator="out"/>
<feColorMatrix type="matrix" values="0 0 0 0 0 0 0 0 0 0 0 0 0 0 0 0 0 0 0.25 0"/>
<feBlend mode="normal" in2="BackgroundImageFix" result="effect1_dropShadow_55_73"/>
<feBlend mode="normal" in="SourceGraphic" in2="effect1_dropShadow_55_73" result="shape"/>
</filter>
</defs>
</svg>
