<svg width="104" height="109" viewBox="0 0 104 109" fill="none" xmlns="http://www.w3.org/2000/svg">
<path d="M78.375 30.625V26.5H66V22.375H61.875V18.25H57.75V14.125H41.25V18.25H37.125V22.375H33V26.5H20.625V30.625H16.5V100.75H20.625V104.875H78.375V100.75H82.5V30.625H78.375ZM41.25 22.375H45.375V18.25H53.625V22.375H57.75V30.625H53.625V34.75H45.375V30.625H41.25V22.375ZM24.75 34.75H33V38.875H66V34.75H74.25V96.625H24.75V34.75Z" fill="#FDFCDF"/>
<path d="M65 27H62V3H74V27H71V45H65V27Z" fill="#FDFCDF"/>
<path d="M77 57V60H74V63H71V66H65V63H62V60H59V57H62V54H65V51H71V54H74V57H77Z" fill="#FDFCDF"/>
</svg>
